<?xml version="1.0" standalone="no"?>
<svg xmlns:xlink="http://www.w3.org/1999/xlink" id="wave" style="transform:rotate(0deg); transition: 0.3s" viewBox="0 0 1440 190" version="1.1" xmlns="http://www.w3.org/2000/svg"><defs><linearGradient id="sw-gradient-0" x1="0" x2="0" y1="1" y2="0"><stop stop-color="rgba(255, 255, 255, 1)" offset="0%"/><stop stop-color="rgba(255, 255, 255, 1)" offset="100%"/></linearGradient></defs><path style="transform:translate(0, 0px); opacity:1" fill="url(#sw-gradient-0)" d="M0,95L26.7,91.8C53.3,89,107,82,160,76C213.3,70,267,63,320,50.7C373.3,38,427,19,480,15.8C533.3,13,587,25,640,53.8C693.3,82,747,127,800,142.5C853.3,158,907,146,960,117.2C1013.3,89,1067,44,1120,44.3C1173.3,44,1227,89,1280,91.8C1333.3,95,1387,57,1440,44.3C1493.3,32,1547,44,1600,60.2C1653.3,76,1707,95,1760,95C1813.3,95,1867,76,1920,76C1973.3,76,2027,95,2080,110.8C2133.3,127,2187,139,2240,129.8C2293.3,120,2347,89,2400,66.5C2453.3,44,2507,32,2560,44.3C2613.3,57,2667,95,2720,110.8C2773.3,127,2827,120,2880,120.3C2933.3,120,2987,127,3040,107.7C3093.3,89,3147,44,3200,25.3C3253.3,6,3307,13,3360,25.3C3413.3,38,3467,57,3520,57C3573.3,57,3627,38,3680,44.3C3733.3,51,3787,82,3813,98.2L3840,114L3840,190L3813.3,190C3786.7,190,3733,190,3680,190C3626.7,190,3573,190,3520,190C3466.7,190,3413,190,3360,190C3306.7,190,3253,190,3200,190C3146.7,190,3093,190,3040,190C2986.7,190,2933,190,2880,190C2826.7,190,2773,190,2720,190C2666.7,190,2613,190,2560,190C2506.7,190,2453,190,2400,190C2346.7,190,2293,190,2240,190C2186.7,190,2133,190,2080,190C2026.7,190,1973,190,1920,190C1866.7,190,1813,190,1760,190C1706.7,190,1653,190,1600,190C1546.7,190,1493,190,1440,190C1386.7,190,1333,190,1280,190C1226.7,190,1173,190,1120,190C1066.7,190,1013,190,960,190C906.7,190,853,190,800,190C746.7,190,693,190,640,190C586.7,190,533,190,480,190C426.7,190,373,190,320,190C266.7,190,213,190,160,190C106.7,190,53,190,27,190L0,190Z"/></svg>